Coordinates
version=1
nRows=17
nColumns=33
inDegrees=yes

Units are S.I. units (second, meters, Newtons, ...)
Angles are in degrees.

endheader
time	ground_thorax_rot_x	ground_thorax_rot_y	ground_thorax_rot_z	ground_thorax_tx	ground_thorax_ty	ground_thorax_tz	clav_prot_r	clav_elev_r	scapula_abduction_r	scapula_elevation_r	scapula_upward_rot_r	scapula_winging_r	shoulder_elv_r	plane_of_elev_r	axial_rot_r	elbow_flexion_r	pro_sup_r	wrist_flex_r	wrist_dev_r	clav_prot_l	clav_elev_l	scapula_abduction_l	scapula_elevation_l	scapula_upward_rot_l	scapula_winging_l	shoulder_elv_l	plane_of_elev_l	axial_rot_l	elbow_flexion_l	pro_sup_l	wrist_flex_l	wrist_dev_l
      7.28000000	     20.99103272	     33.65245109	     54.10089442	    -94.73760638	    777.98340195	      8.36305299	     13.09267732	     37.24099476	     34.01480973	     45.00000000	    -42.96098882	   2075.26410180	  -1198.37367615	    148.41006860	   -121.64533822	   1450.41645078	     23.99776512	     17.75620696	     10.79322325	      8.19076495	    -45.00000000	    -36.07100728	     45.00000000	    -45.00000000	  -2423.25664707	   1510.45527324	     16.61835118	    -68.31662249	   1448.22800621	     23.57180505	      9.37207932	    -18.49830087
      7.29000000	     20.48289155	     33.94909866	     55.01874409	    -90.53796726	    777.08673468	      8.53345555	     13.09109632	     37.16466864	     33.79520681	     45.00000000	    -43.21856384	   2075.53765623	  -1198.57092069	    148.60587320	   -121.13312569	   1450.18664849	     24.28821824	     17.61796017	     10.78852064	      8.17414995	    -45.00000000	    -35.96678898	     45.00000000	    -45.00000000	  -2423.29791034	   1510.34884488	     16.22840003	    -69.42670780	   1448.10164704	     24.40966938	      9.25976085	    -18.50839360
      7.30000000	     20.17610309	     34.09328145	     55.65041210	    -86.52645068	    776.38235802	      8.70099212	     13.10669664	     37.21748680	     33.62646606	     45.00000000	    -43.10412366	   2075.81113396	  -1198.77176776	    148.85469559	   -120.57519739	   1449.97730188	     24.61148672	     17.48850323	     10.77030456	      8.09645920	    -45.00000000	    -35.80564120	     45.00000000	    -45.00000000	  -2423.46442569	   1510.26853451	     15.89311820	    -70.24307400	   1447.92659681	     25.26956697	      9.09689351	    -18.50811749
      7.31000000	     19.53517398	     34.42840076	     56.63993717	    -82.73149986	    775.86877978	      8.86103049	     13.43482213	     36.71850142	     32.88450805	     45.00000000	    -42.93509643	   2076.32768144	  -1198.75945338	    149.10993752	   -120.04119229	   1449.80182420	     24.88714480	     17.25930275	     10.58284395	      8.18802693	    -45.00000000	    -35.70822863	     45.00000000	    -45.00000000	  -2423.76061767	   1510.40779628	     15.27163753	    -71.02185600	   1447.85824006	     26.05246274	      8.97523084	    -18.54753095
      7.32000000	     19.09311444	     34.64766465	     57.41702140	    -79.19213020	    775.53682513	      9.00918218	     12.86437020	     37.14115404	     32.74700598	     45.00000000	    -43.23104452	   2076.34661318	  -1199.01109267	    149.08080322	   -119.56054165	   1449.55920308	     25.21600731	     17.23782065	     10.71769899	      8.32046043	    -45.00000000	    -35.93016505	     45.00000000	    -45.00000000	  -2423.38289737	   1509.98507434	     15.29630116	    -72.07685897	   1447.69521765	     26.97286746	      8.83443389	    -18.55954236
      7.33000000	     18.53805310	     34.90079325	     58.36173029	    -75.93171065	    775.37291208	      9.14109315	     13.23737632	     36.53535537	     32.43412626	     45.00000000	    -43.42465486	   2076.70147088	  -1199.03633673	    149.34036702	   -119.23345412	   1449.35757746	     25.54379939	     17.01632388	     10.52677607	      8.34252191	    -45.00000000	    -35.70430695	     45.00000000	    -45.00000000	  -2423.70646213	   1510.25985199	     14.62224271	    -72.92652237	   1447.70734983	     27.94158267	      8.62039313	    -18.65243796
      7.34000000	     18.31949078	     34.93336609	     58.72192309	    -72.94618116	    775.33991220	      9.25914354	     12.76404595	     37.08089272	     32.38741412	     45.00000000	    -43.60379473	   2076.72756866	  -1199.34643014	    149.20399594	   -119.07113931	   1449.23973443	     25.91748576	     17.05736178	     10.68946818	      8.33712083	    -45.00000000	    -35.87930254	     45.00000000	    -45.00000000	  -2423.28316452	   1509.77928795	     14.94749066	    -73.80654288	   1447.54928640	     29.04946746	      8.41726370	    -18.63225779
      7.35000000	     18.02636436	     35.12472358	     59.35924367	    -70.28179599	    775.44080270	      9.34455821	     13.19479992	     36.48356475	     32.42063045	     45.00000000	    -44.08899582	   2076.92131067	  -1199.34506029	    149.29718204	   -119.15924332	   1449.07661845	     26.28449775	     16.85633459	     10.48670093	      8.30017790	    -45.00000000	    -35.56463462	     45.00000000	    -45.00000000	  -2423.75477521	   1510.08298627	     14.29444613	    -74.17969501	   1447.63111370	     30.18176536	      8.12954151	    -18.81185061
      7.36000000	     18.02994456	     35.14307612	     59.46118934	    -68.00087315	    775.67783846	      9.38521262	     12.95243372	     37.00170479	     32.39624983	     45.00000000	    -44.03592675	   2076.98322583	  -1199.57061154	    149.20398300	   -119.38516355	   1448.93274732	     26.68212439	     16.91927444	     10.70376453	      8.22597661	    -45.00000000	    -35.75175394	     45.00000000	    -45.00000000	  -2423.27848503	   1509.50914909	     14.70369521	    -74.81494966	   1447.49693075	     31.55290257	      7.87708124	    -18.95402979
      7.37000000	     18.23846280	     35.16660127	     59.42508472	    -66.15059362	    776.05094425	      9.37490947	     13.09102733	     36.96667118	     32.69472399	     45.00000000	    -44.20866483	   2077.04463303	  -1199.75594818	    149.16970432	   -119.49572494	   1448.78749261	     27.25362978	     16.85269410	     10.64975960	      7.99201119	    -45.00000000	    -35.31598905	     45.00000000	    -45.00000000	  -2423.59645747	   1509.58612311	     14.54049994	    -75.02360333	   1447.53707819	     33.74704262	      7.44230102	    -19.20595559
      7.38000000	     22.88421799	     35.76013225	     54.98247147	    -71.06285196	    784.39213882	     19.64914938	     14.45185247	     38.40321203	     33.48524913	     45.00000000	    -41.15355133	   2076.71066426	  -1200.58523531	    149.47634554	   -119.82621528	   1448.38842541	     27.79345297	     16.53527220	     10.46313906	      6.04332298	    -45.00000000	    -34.60967442	     45.00000000	    -45.00000000	  -2425.84127384	   1508.52900912	     13.66458600	    -76.49094088	   1450.29038587	     33.54530988	      6.96411000	    -17.69369843
      7.39000000	     22.40985243	     36.01878988	     55.55990764	    -69.40968012	    784.61708492	     19.77760963	     13.98742454	     37.53288301	     33.11128517	     45.00000000	    -41.69304196	   2076.93839611	  -1200.40330481	    149.32050416	   -120.57775712	   1448.49375427	     27.88792902	     16.47295625	     10.50863425	      7.39074858	    -45.00000000	    -34.91054433	     45.00000000	    -45.00000000	  -2426.09038253	   1508.43915814	     13.37871018	    -75.45242705	   1450.28606277	     33.42762753	      7.89644189	    -17.68972550
      7.40000000	     22.55312305	     35.92587714	     55.48154995	    -68.02356698	    784.79810720	     20.00324404	     14.15379438	     38.11367779	     33.35862868	     45.00000000	    -41.85281185	   2076.97852996	  -1200.49519240	    149.24592833	   -120.80998268	   1448.54480165	     27.97749443	     16.50820260	     10.49895164	      6.92555666	    -45.00000000	    -34.94788353	     45.00000000	    -45.00000000	  -2425.95850395	   1508.05509804	     13.56282766	    -75.40889585	   1450.04722491	     33.22881653	      7.34601240	    -17.73145288
      7.41000000	     22.62446055	     35.94215154	     55.47898750	    -66.87245022	    784.93611490	     20.30435935	     14.22431601	     37.58621634	     33.28692619	     45.00000000	    -41.73995783	   2077.09667860	  -1200.49924765	    149.24402792	   -120.65162776	   1448.67001463	     27.98121330	     16.42268408	     10.50084843	      7.00106307	    -45.00000000	    -34.64773665	     45.00000000	    -45.00000000	  -2426.39055040	   1508.16144038	     13.29478387	    -75.34205762	   1450.13240528	     33.16115617	      8.00528335	    -17.72778311
      7.42000000	     22.57670245	     35.94765429	     55.58485337	    -65.91199546	    785.04556212	     20.64680067	     14.16484697	     38.17999636	     33.29252394	     45.00000000	    -41.83743752	   2077.09988274	  -1200.53725085	    149.16048371	   -120.41727375	   1448.80442966	     27.80844066	     16.44530947	     10.40454888	      6.81321958	    -45.00000000	    -34.87857665	     45.00000000	    -45.00000000	  -2426.13263350	   1507.74637444	     13.46741713	    -75.06616560	   1449.90152292	     32.92030195	      7.50185553	    -17.71352806
      7.43000000	     22.65896456	     36.01172772	     55.55949862	    -65.09300523	    785.14887642	     20.95887659	     14.23490005	     37.58998746	     33.25405645	     45.00000000	    -41.65661025	   2077.17121714	  -1200.49027071	    149.17152418	   -120.11219839	   1448.90862463	     27.53153836	     16.35957784	     10.42679355	      6.95776383	    -45.00000000	    -34.61324688	     45.00000000	    -45.00000000	  -2426.61599335	   1507.89946911	     13.17394368	    -75.13214090	   1449.99442279	     32.83149850	      8.20352783	    -17.81555668
      7.44000000	     22.58258818	     36.02789337	     55.64247424	    -64.38679190	    785.26191656	     21.21387321	     14.14269672	     38.30608413	     33.34563187	     45.00000000	    -41.80777985	   2077.18060251	  -1200.61892536	    149.15474159	   -119.84948802	   1449.00903474	     27.15194029	     16.39728284	     10.31443649	      6.72723523	    -45.00000000	    -34.94666347	     45.00000000	    -45.00000000	  -2426.27461928	   1507.43080348	     13.40869300	    -74.84924917	   1449.68604718	     32.57635395	      7.54777463	    -17.63998364
